<svg id="Capa_1" enable-background="new 0 0 512 512" fill="#009ee2" viewBox="0 0 512 512"  xmlns="http://www.w3.org/2000/svg"><g><circle cx="111.295" cy="407" r="15"/><path d="m186.295 75c0-41.353-33.647-75-75-75s-75 33.647-75 75v258.978c-19.146 19.629-30 45.879-30 73.022 0 57.891 47.109 105 105 105s105-47.109 105-105c0-27.144-10.854-53.394-30-73.022zm-75 377c-24.814 0-45-20.186-45-45 0-19.53 12.578-36.024 30-42.237v-62.763h30v62.763c17.422 6.213 30 22.707 30 42.237 0 24.814-20.185 45-45 45z"/><path d="m505.602 172.119-7.764-28.974-49.469 13.258-37.07-21.403 37.07-21.403 49.469 13.258 7.764-28.974-20.497-5.495 20.6-11.893-15-25.986-20.594 11.891 5.491-20.49-28.975-7.763-13.256 49.465-37.076 21.406v-42.805l36.211-36.211-21.211-21.211-15 15v-23.789h-30v23.789l-15-15-21.211 21.211 36.211 36.211v42.805l-37.075-21.406-13.257-49.465-28.974 7.763 5.491 20.49-20.594-11.891-15 25.986 20.6 11.893-20.497 5.495 7.763 28.974 49.47-13.258 37.07 21.403-37.07 21.403-49.47-13.258-7.763 28.974 20.497 5.495-20.6 11.893 15 25.986 20.594-11.891-5.491 20.49 28.974 7.763 13.257-49.465 37.075-21.406v42.805l-36.211 36.211 21.211 21.211 15-15v23.789h30v-23.789l15 15 21.211-21.211-36.211-36.211v-42.805l37.076 21.406 13.256 49.465 28.975-7.763-5.491-20.49 20.594 11.891 15-25.986-20.6-11.893z"/><path d="m426.295 302h-90v90h-44.458l89.458 120 89.458-120h-44.458z"/></g></svg>