<svg id="Capa_1" enable-background="new 0 0 512 512" fill="#f3aa00" viewBox="0 0 512 512"  xmlns="http://www.w3.org/2000/svg"><g><circle cx="105" cy="407" r="15"/><path d="m180 75c0-41.353-33.647-75-75-75s-75 33.647-75 75v258.978c-19.146 19.628-30 45.878-30 73.022 0 57.891 47.109 105 105 105s105-47.109 105-105c0-27.144-10.854-53.394-30-73.022zm-75 377c-24.814 0-45-20.186-45-45 0-19.53 12.578-36.024 30-42.237v-304.763h30v304.763c17.422 6.213 30 22.707 30 42.237 0 24.814-20.186 45-45 45z"/><path d="m285.542 422h44.458v90h90v-90h44.458l-89.458-123.003z"/><path d="m512 150v-30h-61.518c-1.948-9.558-5.762-18.428-10.977-26.294l43.564-43.564-21.211-21.211-43.564 43.564c-7.866-5.215-16.736-9.029-26.294-10.977v-61.518h-30v61.518c-9.558 1.948-18.428 5.762-26.294 10.977l-43.564-43.564-21.211 21.211 43.564 43.564c-5.215 7.866-9.029 16.736-10.977 26.294h-61.518v30h61.518c1.948 9.558 5.762 18.428 10.977 26.294l-43.564 43.564 21.211 21.211 43.564-43.564c7.866 5.215 16.736 9.029 26.294 10.977v61.518h30v-61.518c9.558-1.948 18.428-5.762 26.294-10.977l43.564 43.564 21.211-21.211-43.564-43.564c5.215-7.866 9.029-16.736 10.977-26.294z"/></g></svg>